<?xml version="1.0" encoding="utf-8"?>
<!-- Generator: Adobe Illustrator 25.0.0, SVG Export Plug-In . SVG Version: 6.00 Build 0)  -->
<svg version="1.1" id="Calque_1" xmlns="http://www.w3.org/2000/svg" xmlns:xlink="http://www.w3.org/1999/xlink" x="0px" y="0px"
	 viewBox="0 0 381 588.7" style="enable-background:new 0 0 381 588.7;" xml:space="preserve">
<style type="text/css">
	.st0{fill:#FFFFFF;}
</style>
<g>
	<path class="st0" d="M334.5,558.7h-20.4v30h20.8v-5.1h-15v-7.8h12.6v-4.7h-12.6v-7.2h14.6V558.7z M332.9,430.7h-20.5v30h20.9v-5.1
		h-15v-7.8h12.6V443h-12.6v-7.2h14.6V430.7z M321,427.1l3.6,1.1l3.9-6.1h-5.2L321,427.1z M303.6,558.7h-5.8v30h5.8V558.7z
		 M294.5,460.7v-24.9h9.6v-5.1h-25v5.1h9.6v24.9H294.5z M269.1,563.8h5.1c1.4,0,2.7,0.2,3.8,0.7c1.1,0.5,2.1,1.1,2.8,2
		c0.8,0.9,1.3,1.9,1.7,3.1c0.4,1.2,0.6,2.5,0.6,4c0,1.4-0.2,2.7-0.6,3.9s-1,2.3-1.7,3.2c-0.8,0.9-1.7,1.6-2.8,2.1
		c-1.1,0.5-2.4,0.8-3.8,0.8h-5.1V563.8z M274.2,558.7h-10.9v30h10.9c2.3,0,4.3-0.4,6.1-1.1c1.8-0.7,3.4-1.7,4.7-3
		c1.3-1.3,2.3-2.9,3-4.7s1-3.9,1-6.2c0-2.1-0.3-4-0.9-5.8s-1.6-3.4-2.8-4.8c-1.3-1.4-2.8-2.4-4.6-3.2
		C278.8,559.1,276.6,558.7,274.2,558.7 M265,460.7h5.8v-30H265V460.7z M252.6,459c1-0.7,1.8-1.6,2.4-2.8c0.6-1.2,0.9-2.5,0.9-4.1
		c0-1.4-0.2-2.5-0.7-3.5c-0.5-0.9-1.1-1.8-1.9-2.4c-0.8-0.7-1.8-1.2-3-1.7s-2.5-0.9-4-1.3c-1.1-0.3-2.1-0.5-3-0.8s-1.6-0.5-2.1-0.8
		c-0.6-0.3-1-0.7-1.3-1.1s-0.4-0.9-0.4-1.5c0-1.1,0.4-1.9,1.2-2.5c0.8-0.6,2-0.9,3.6-0.9c0.9,0,1.8,0.1,2.7,0.3
		c0.9,0.2,1.7,0.5,2.4,0.8c0.8,0.3,1.4,0.6,1.9,1c0.5,0.3,0.9,0.6,1.1,0.8l2.6-4.7c-1.3-0.9-2.9-1.7-4.7-2.3c-1.8-0.7-3.7-1-5.8-1
		c-1.5,0-2.9,0.2-4.3,0.6c-1.3,0.4-2.5,1-3.5,1.8s-1.8,1.8-2.3,3c-0.6,1.2-0.8,2.5-0.8,4.1c0,1.2,0.2,2.2,0.5,3
		c0.4,0.8,0.9,1.6,1.6,2.2s1.6,1.2,2.7,1.7s2.3,0.9,3.7,1.3c1.2,0.3,2.3,0.6,3.2,0.9c1,0.3,1.8,0.6,2.5,0.9s1.2,0.7,1.6,1.2
		c0.4,0.4,0.6,1,0.6,1.6c0,2.1-1.6,3.1-4.8,3.1c-1.2,0-2.3-0.1-3.4-0.4s-2.1-0.6-3-1s-1.7-0.8-2.3-1.2c-0.7-0.4-1.1-0.7-1.4-1
		l-2.6,5c1.7,1.2,3.7,2.2,5.9,2.9c2.2,0.7,4.4,1,6.7,1c1.5,0,2.9-0.2,4.2-0.5C250.3,460.2,251.5,459.7,252.6,459 M231.3,558.7h-4.5
		v30h5.8v-19.2l15.4,19.2h4.7v-30h-5.8v19.7L231.3,558.7z M214.8,445.5h-7.3v-9.7h7.1c0.5,0,1,0.1,1.5,0.4c0.5,0.2,0.9,0.6,1.3,1
		s0.7,1,0.9,1.5c0.2,0.6,0.3,1.2,0.3,1.9c0,0.7-0.1,1.3-0.3,1.9c-0.2,0.6-0.5,1.1-0.8,1.5s-0.8,0.8-1.2,1
		C215.8,445.4,215.3,445.5,214.8,445.5 M213.2,450.6l6.1,10.1h6.6l-6.8-11.3c1.7-0.7,3-1.9,3.9-3.4c1-1.6,1.5-3.4,1.5-5.3
		c0-1.2-0.2-2.4-0.7-3.6s-1.1-2.3-2-3.2c-0.8-0.9-1.9-1.7-3-2.3c-1.2-0.6-2.4-0.9-3.8-0.9h-13.3v30h5.8v-10.1L213.2,450.6
		L213.2,450.6z M201,577.1l4.3-11.8l4.1,11.8H201z M202.7,558.7l-11.5,30h6l2.7-7.5h10.5l2.8,7.5h6l-11.4-30H202.7z M177.5,455.6
		v-7.8h12.6V443h-12.6v-7.2h14.6v-5.1h-20.5v30h20.8v-5.1L177.5,455.6L177.5,455.6z M159.7,558.7h-6.3v30h5.8v-19.9l7.7,14.8h3.2
		l7.7-14.8v19.9h5.8v-30h-6.2l-9,17.1L159.7,558.7z M153.1,494.7h-4.5v30h5.8v-19.2l15.4,19.2h4.7v-30h-5.8v19.6L153.1,494.7z
		 M135.4,430.7l11.8,30h4.9l11.7-30h-6.1l-8,22.7l-8.1-22.7H135.4z M134,563.8c0.5,0,1,0.1,1.5,0.4c0.5,0.2,0.9,0.6,1.3,1
		c0.4,0.4,0.7,1,0.9,1.5c0.2,0.6,0.3,1.2,0.3,1.9s-0.1,1.3-0.3,1.9c-0.2,0.6-0.5,1.1-0.8,1.5s-0.7,0.8-1.2,1c-0.5,0.3-1,0.4-1.5,0.4
		h-7.3v-9.7L134,563.8L134,563.8z M134.4,558.7h-13.3v30h5.8v-10.1h5.7l6.1,10.1h6.5l-6.8-11.3c1.7-0.7,3-1.9,4-3.5s1.5-3.4,1.5-5.3
		c0-1.2-0.2-2.4-0.7-3.6c-0.5-1.2-1.2-2.3-2-3.2c-0.8-1-1.9-1.7-3-2.3C137,559,135.7,558.7,134.4,558.7 M137.7,494.7h-20.5v30H138
		v-5.1h-15v-7.8h12.6V507H123v-7.2h14.6L137.7,494.7L137.7,494.7z M121.7,460.7h5.8v-30h-5.8V460.7z M89,573.7
		c0-1.2,0.2-2.5,0.6-3.7c0.4-1.2,0.9-2.3,1.7-3.2c0.7-0.9,1.6-1.7,2.7-2.3c1.1-0.6,2.4-0.9,3.8-0.9c1.4,0,2.6,0.3,3.7,0.8
		c1.1,0.6,2,1.3,2.7,2.2s1.3,2,1.7,3.2s0.6,2.5,0.6,3.8c0,1.2-0.2,2.5-0.6,3.7c-0.4,1.2-0.9,2.3-1.7,3.2c-0.8,1-1.7,1.7-2.7,2.3
		c-1.1,0.6-2.3,0.9-3.7,0.9s-2.6-0.3-3.7-0.8c-1.1-0.6-2-1.3-2.8-2.2c-0.7-0.9-1.3-2-1.7-3.2C89.2,576.3,89,575,89,573.7 M84.2,568
		c-0.7,1.8-1.1,3.7-1.1,5.7c0,1.9,0.4,3.8,1.1,5.6c0.7,1.8,1.7,3.5,3,4.9s2.8,2.6,4.6,3.4c1.8,0.9,3.8,1.3,6,1.3
		c2.1,0,4.1-0.4,5.9-1.2c1.8-0.8,3.4-2,4.6-3.3c1.3-1.4,2.3-3,3-4.8s1.1-3.7,1.1-5.7c0-1.9-0.4-3.7-1.1-5.6c-0.7-1.8-1.7-3.5-3-4.9
		s-2.8-2.6-4.6-3.5s-3.8-1.3-5.9-1.3c-2.1,0-4.1,0.4-5.9,1.3c-1.8,0.8-3.4,1.9-4.7,3.4C86,564.5,85,566.1,84.2,568 M104.9,430.7
		v19.6l-15.6-19.6h-4.5v30h5.8v-19.2l15.4,19.2h4.7v-30H104.9z M89.7,513.1l4.3-11.8l4.1,11.8H89.7z M91.5,494.7l-11.4,30h6l2.7-7.5
		h10.5l2.8,7.5h6l-11.4-30H91.5z M53,558.7h-4.5v30h5.8v-19.2l15.4,19.2h4.7v-30h-5.8v19.7L53,558.7z M68.5,430.7V446
		c0,1.2-0.1,2.4-0.4,3.6c-0.2,1.2-0.6,2.2-1.2,3.1c-0.6,0.9-1.3,1.6-2.3,2.2c-0.9,0.6-2.1,0.8-3.5,0.8s-2.5-0.3-3.4-0.8
		c-0.9-0.6-1.7-1.3-2.3-2.2c-0.6-0.9-1-1.9-1.2-3.1s-0.4-2.4-0.4-3.7v-15.3H48V446c0,2,0.2,3.8,0.7,5.6s1.2,3.4,2.3,4.8
		c1,1.4,2.4,2.5,4.1,3.3c1.7,0.8,3.7,1.2,6.1,1.2c2.3,0,4.3-0.4,6-1.2s3-1.9,4.1-3.2c1.1-1.4,1.8-2.9,2.3-4.7
		c0.5-1.8,0.7-3.7,0.7-5.8v-15.3L68.5,430.7L68.5,430.7z M47.6,504.1c-0.7,1.8-1,3.6-1,5.4c0,1.9,0.4,3.8,1.1,5.6s1.7,3.5,3,4.9
		c1.3,1.5,2.8,2.6,4.6,3.5c1.8,0.9,3.7,1.4,5.9,1.4c1.2,0,2.5-0.2,3.7-0.5c1.3-0.3,2.5-0.8,3.6-1.3c1.1-0.6,2.1-1.3,3-2.2
		c0.9-0.9,1.6-1.9,2-3l-4.8-2.7c-0.3,0.8-0.8,1.5-1.4,2.1c-0.6,0.6-1.2,1.1-1.8,1.4c-0.7,0.4-1.4,0.6-2.1,0.8
		c-0.7,0.2-1.4,0.2-2.1,0.2c-1.3,0-2.5-0.3-3.6-0.8c-1.1-0.6-2-1.3-2.8-2.2s-1.4-2-1.8-3.2s-0.6-2.5-0.6-3.8c0-1.2,0.2-2.4,0.5-3.6
		c0.4-1.2,0.9-2.3,1.6-3.2s1.6-1.7,2.7-2.3s2.4-0.9,3.8-0.9c0.7,0,1.4,0.1,2.1,0.2c0.7,0.1,1.4,0.4,2,0.7c0.7,0.3,1.3,0.8,1.8,1.4
		c0.6,0.6,1,1.3,1.4,2.1l4.5-3.1c-1-1.9-2.5-3.5-4.5-4.7s-4.4-1.8-7.2-1.8c-2.3,0-4.4,0.4-6.3,1.3c-1.8,0.9-3.4,2-4.7,3.4
		C49.3,500.7,48.3,502.3,47.6,504.1 M333.3,211.2L333.3,211.2L333.3,211.2c0,1.3-1,2.2-2.2,2.2c-0.5,0-1.2-0.1-1.8-0.7L286.7,165
		c-0.4-0.4-0.6-0.9-0.6-1.5c0-1.2,1-2.1,2.1-2.1h6c0.7,0,1.3,0.3,1.7,0.9l29,33v-31.8c0-1.2,1-2.1,2.1-2.1h4.2
		c1.2,0,2.1,0.9,2.1,2.1L333.3,211.2L333.3,211.2z M270.1,209.7c0,1.2-0.9,2.1-2.1,2.1h-31.7c-1.2,0-2.1-0.9-2.1-2.1v-4.2
		c0-1.2,1-2.1,2.1-2.1H268c1.2,0,2.1,0.9,2.1,2.1L270.1,209.7L270.1,209.7z M270.1,188.6c0,1.2-0.9,2.1-2.1,2.1h-31.7
		c-1.2,0-2.1-0.9-2.1-2.1v-4.2c0-1.2,1-2.1,2.1-2.1H268c1.2,0,2.1,1,2.1,2.1L270.1,188.6L270.1,188.6z M270.1,167.4
		c0,1.2-0.9,2.1-2.1,2.1h-31.7c-1.2,0-2.1-0.9-2.1-2.1v-4.2c0-1.2,1-2.1,2.1-2.1H268c1.2,0,2.1,1,2.1,2.1L270.1,167.4L270.1,167.4z
		 M223.3,209.8c0.1,1.2-0.9,1.9-2.1,1.9h-5.3c-1.2,0-1.7-0.7-2.1-1.7c0,0-23.6-42.2-23.8-42.7c-0.2-0.3-0.3-0.7-0.3-1.2
		s0.3-1.1,0.3-1.1l2.3-4.8c0.3-0.8,1.1-1.4,2-1.4h0.1h0.1c0.9,0,1.7,0.6,2,1.4l26.6,48.4C223,208.7,223.3,209.4,223.3,209.8
		 M203.1,136.3c0.2,1.2-1,2.2-2.1,2.2l0,0h-2.5c-13.7,0-24.1,4.2-32.8,12.3c-8.1,7.5-13.7,17.2-15.2,29.2l0,0c0,1.2-1,2.2-2.2,2.2
		h-5c-1.2,0-2.2-1-2.2-2.1l0,0l0,0l0,0c1.6-14.1,8.3-26.4,18.3-35.6c10.3-9.4,23.7-14.6,38.3-14.6h1.1h1.4c1.2,0,2,0.7,2.3,2.2
		L203.1,136.3z M128.8,160.8c0,1.2-0.9,2.1-2.1,2.1h-5.6c-1.2,0-2.1-0.9-2.1-2.1v-4.2c0-1.2,0.9-2.1,2.1-2.1h5.6
		c1.2,0,2.1,1,2.1,2.1V160.8z M90.7,162.1l29,33.1V175c0-1.2,1-2.1,2.1-2.1h4.2c1.2,0,2.1,1,2.1,2.1v36l0,0v0.1c0,1.2-1,2.2-2.2,2.2
		c-0.5,0-1.2-0.1-1.8-0.8l-42.6-47.7c-0.4-0.4-0.6-0.9-0.6-1.5c0-1.2,1-2.1,2.1-2.1h6C89.7,161.2,90.3,161.5,90.7,162.1 M68.9,204.1
		c4.7,0,9.1-1.5,12.7-4.1v-16.3c0-0.1,0-0.1,0-0.2c0-0.2,0-0.3,0-0.4c0.2-1,1-1.7,2.1-1.7l0,0c0.7,0,1.3,0.3,1.7,0.8l3.9,4.5
		c0.5,0.4,0.8,1,0.8,1.7v14.8c0,0,0.2,0.8-0.7,1.6c-5.4,4.9-12.6,7.9-20.4,7.9c-11.7,0-21.2-9.5-21.2-20.7v-28.2
		c0-1.6,0.9-2.5,2.1-2.5h4.2c1.2,0,2.1,1,2.1,2.1v28.2C56.2,198.4,61.9,204.1,68.9,204.1 M201.5,208.2c0.5,0.7,0.7,1.7,0.2,2.6
		s-1.2,1.1-2,1h-29.6c-0.7,0-1.6,0-2-0.3c-1-0.6-0.7-1.8-0.2-2.9l14.1-28.5c0.3-0.8,1.2-1.4,2.2-1.4s1.5,0.6,1.9,1.4l2.5,4.2
		c0,0,0.4,1.3,0.4,1.7s-0.1,0.8-0.4,1.2c-0.2,0.3-5.3,10.6-8.2,16.3h17c0.4-0.1,0.8,0.1,1.2,0.3s0.8,0.9,0.8,0.9L201.5,208.2
		L201.5,208.2z M141,192.7L141,192.7c0-1.2,1-2.1,2.2-2.1h5c1.2,0,2.2,1,2.2,2.2l0,0c1.5,11.9,7.1,22.2,15.2,29.7
		c8.8,8,18.5,11.8,32.1,11.8h2.5l0,0c1.2,0,2.3,1,2.1,2.2l-0.7,4.3c-0.2,1.4-1.1,2.2-2.3,2.2h-1.4h-0.4c-14.5,0-28-5.2-38.3-14.6
		C149.3,219.1,142.6,206.8,141,192.7L141,192.7L141,192.7L141,192.7z M286.7,184.1c0-0.2,0-0.3,0.1-0.4c0.2-1,1-1.7,2.1-1.7
		c0,0,0,0,0.1,0c0.7,0,1.3,0.3,1.7,0.8l3.8,4.5c0.5,0.4,0.8,1,0.8,1.7v21c0,1.2-1,2.1-2.1,2.1H289c-1.2,0-2.1-1-2.1-2.1v-25.8
		C286.7,184.2,286.7,184.1,286.7,184.1 M381,190.5C381,85.3,295.7,0,190.5,0S0,85.3,0,190.5S85.3,381,190.6,381
		C295.7,381.1,381,295.8,381,190.5"/>
</g>
</svg>
